<?xml version="1.0" standalone="no"?>
<!DOCTYPE svg PUBLIC "-//W3C//DTD SVG 20010904//EN"
 "http://www.w3.org/TR/2001/REC-SVG-20010904/DTD/svg10.dtd">
<svg version="1.0" xmlns="http://www.w3.org/2000/svg"
 width="800.000000pt" height="800.000000pt" viewBox="0 0 800.000000 800.000000"
 preserveAspectRatio="xMidYMid meet">
<metadata>
Created by potrace 1.15, written by Peter Selinger 2001-2017
</metadata>
<g transform="translate(0.000000,800.000000) scale(0.100000,-0.100000)"
fill="#000000" stroke="none">
<path d="M1790 7801 c-351 -118 -505 -206 -631 -361 -115 -142 -153 -356 -86
-492 92 -188 378 -310 722 -307 114 1 118 2 78 14 -23 7 -87 37 -142 65 -219
113 -345 301 -325 489 21 208 186 409 479 585 60 36 103 66 95 66 -8 0 -94
-27 -190 -59z"/>
<path d="M1971 7319 c-152 -11 -156 -12 -86 -32 248 -72 374 -119 479 -180
230 -135 275 -312 145 -557 -136 -256 -562 -659 -1097 -1041 -62 -45 -111 -83
-109 -86 8 -7 224 86 381 164 296 148 507 280 742 466 337 264 532 515 594
762 89 355 -148 517 -750 513 -102 0 -237 -5 -299 -9z"/>
<path d="M1500 6088 c-194 -59 -482 -157 -600 -205 -471 -190 -735 -422 -848
-744 -179 -508 116 -885 794 -1015 117 -22 175 -27 369 -31 127 -3 228 -3 225
0 -3 3 -50 22 -105 42 -392 146 -648 393 -715 690 -18 80 -14 239 9 326 54
210 217 433 458 630 92 76 319 227 430 286 86 46 82 51 -17 21z"/>
<path d="M3949 5987 c-19 -12 -40 -34 -47 -49 -13 -27 -42 -286 -42 -373 0
-56 24 -104 64 -130 16 -11 63 -20 133 -26 113 -10 779 -70 990 -90 114 -11
124 -10 155 8 42 24 74 71 81 120 3 21 11 109 18 196 12 148 12 160 -5 192
-22 39 -85 75 -134 75 -18 0 -206 16 -420 36 -581 53 -704 64 -733 64 -14 0
-41 -10 -60 -23z"/>
<path d="M3265 5233 c-786 -20 -1401 -169 -1653 -399 -89 -81 -132 -145 -132
-195 0 -97 -20 -92 555 -144 94 -8 193 -17 220 -20 56 -6 621 -57 875 -80 91
-8 237 -22 325 -30 88 -8 358 -33 600 -55 242 -22 487 -44 545 -50 58 -6 179
-17 270 -25 91 -8 311 -28 490 -45 179 -17 377 -35 440 -40 105 -9 235 -21
1028 -95 176 -16 272 -21 288 -15 87 33 29 211 -115 357 -269 270 -868 505
-1696 667 -436 85 -969 144 -1480 166 -225 9 -310 10 -560 3z m-196 -193
c-236 -78 -387 -180 -487 -327 -27 -40 -52 -64 -72 -72 -24 -8 -98 -4 -313 15
-155 14 -294 30 -309 36 -63 24 -16 89 110 152 161 81 415 142 787 191 170 22
273 32 325 33 43 1 41 0 -41 -28z"/>
<path d="M1356 3631 c-49 -10 -70 -51 -75 -142 -2 -45 -8 -79 -13 -79 -6 0
-168 43 -360 95 -191 52 -361 95 -377 95 -16 0 -36 -9 -47 -21 -17 -19 -19
-41 -22 -243 -4 -237 3 -286 41 -311 26 -17 104 -41 287 -89 74 -19 176 -47
225 -60 50 -14 129 -35 177 -48 l87 -22 3 -1020 3 -1021 24 -80 c39 -136 93
-228 196 -331 76 -77 105 -98 185 -137 183 -90 -74 -82 2545 -82 l2320 0 80
23 c208 60 371 196 466 387 78 158 73 70 79 1225 l5 1034 265 73 c146 41 314
87 374 103 87 23 116 36 140 60 l31 30 3 234 3 233 -26 32 c-17 19 -36 31 -52
31 -24 0 -129 -28 -535 -141 -98 -27 -184 -49 -193 -49 -12 0 -15 15 -15 79 0
75 -2 81 -29 109 -21 20 -43 31 -77 36 -60 8 -5680 6 -5718 -3z m1722 -591
l134 0 29 -29 29 -30 -2 -1071 -3 -1072 -28 -24 -28 -24 -487 0 c-524 0 -538
1 -646 54 -69 34 -149 109 -190 179 -67 113 -66 98 -66 1077 0 611 3 887 11
901 26 49 37 50 594 45 286 -3 580 -6 653 -6z"/>
</g>
</svg>
